<svg width="678" height="198" viewBox="0 0 678 198" fill="none" xmlns="http://www.w3.org/2000/svg">
<path d="M78.3008 13.1411H111.271L189.991 194.094H145.008L129.418 155.757H59.132L44.0526 194.094H0.0922241L78.3008 13.1411ZM93.6358 65.7913L71.6556 122.02H115.872L93.6358 65.7913Z" fill="#01996D"/>
<path d="M203.846 0.873047H242.184V194.094H203.846V0.873047Z" fill="#01996D"/>
<path d="M270.238 69.8806H308.576V194.094H270.238V69.8806ZM267.171 30.7763C267.171 24.6423 269.301 19.4455 273.561 15.1857C277.991 10.7556 283.273 8.54056 289.407 8.54056C295.541 8.54056 300.738 10.7556 304.997 15.1857C309.428 19.4455 311.643 24.6423 311.643 30.7763C311.643 36.9103 309.428 42.1924 304.997 46.6225C300.738 50.8822 295.541 53.0121 289.407 53.0121C283.273 53.0121 277.991 50.8822 273.561 46.6225C269.301 42.1924 267.171 36.9103 267.171 30.7763Z" fill="#01996D"/>
<path d="M323.084 69.8806H364.489L395.925 154.223H396.436L425.573 69.8806H464.166L415.094 194.094H374.456L323.084 69.8806Z" fill="#01996D"/>
<path d="M478.649 69.8806H516.986V194.094H478.649V69.8806ZM475.582 30.7763C475.582 24.6423 477.711 19.4455 481.971 15.1857C486.401 10.7556 491.683 8.54056 497.817 8.54056C503.951 8.54056 509.148 10.7556 513.408 15.1857C517.838 19.4455 520.053 24.6423 520.053 30.7763C520.053 36.9103 517.838 42.1924 513.408 46.6225C509.148 50.8822 503.951 53.0121 497.817 53.0121C491.683 53.0121 486.401 50.8822 481.971 46.6225C477.711 42.1924 475.582 36.9103 475.582 30.7763Z" fill="#01996D"/>
<path d="M539.929 131.987C539.929 122.105 541.718 113.159 545.296 105.151C548.874 97.1429 553.73 90.3273 559.864 84.7045C566.169 78.9112 573.495 74.4811 581.844 71.4141C590.364 68.3471 599.394 66.8136 608.936 66.8136C618.478 66.8136 627.423 68.3471 635.773 71.4141C644.292 74.4811 651.619 78.9112 657.753 84.7045C664.057 90.3273 668.998 97.1429 672.577 105.151C676.155 113.159 677.944 122.105 677.944 131.987C677.944 141.87 676.155 150.815 672.577 158.824C668.998 166.832 664.057 173.733 657.753 179.526C651.619 185.149 644.292 189.494 635.773 192.561C627.423 195.628 618.478 197.161 608.936 197.161C599.394 197.161 590.364 195.628 581.844 192.561C573.495 189.494 566.169 185.149 559.864 179.526C553.73 173.733 548.874 166.832 545.296 158.824C541.718 150.815 539.929 141.87 539.929 131.987ZM578.266 131.987C578.266 141.359 580.907 148.941 586.189 154.734C591.642 160.528 599.224 163.424 608.936 163.424C618.648 163.424 626.146 160.528 631.428 154.734C636.88 148.941 639.606 141.359 639.606 131.987C639.606 122.616 636.88 115.034 631.428 109.24C626.146 103.447 618.648 100.551 608.936 100.551C599.224 100.551 591.642 103.447 586.189 109.24C580.907 115.034 578.266 122.616 578.266 131.987Z" fill="#01996D"/>
</svg>
